<?xml version="1.0" encoding="UTF-8"?>
<svg version="1.1" xmlns="http://www.w3.org/2000/svg" width="2560" height="2560">
<path d="M0 0 C2.42289259 0.22760038 4.84670068 0.43934757 7.27142334 0.64648438 C91.02870092 7.83814901 173.51997171 25.89268068 368.39105225 99.22460938 C369.42294678 99.70897461 370.45484131 100.19333984 371.51800537 100.69238281 C395.55117408 111.99899927 418.97349857 124.16483672 441.81829834 137.71582031 C444.69349212 139.40197495 447.5976232 141.02614132 450.51824951 142.63183594 C468.5588653 152.55640883 485.70264361 164.00823716 502.82855225 175.41210938 C503.57592651 175.90913361 504.32330078 176.40615784 505.09332275 176.91824341 C521.54947626 187.87491523 537.66359226 199.2443516 553.39105225 211.22460938 C553.96307373 211.66015137 554.53509521 212.09569336 555.12445068 212.54443359 C558.8940845 215.41974666 562.64656124 218.3166536 566.39105225 221.22460938 C566.93406982 221.64532715 567.4770874 222.06604492 568.03656006 222.49951172 C585.5870244 236.11519266 602.72638885 250.29446513 619.1762085 265.22460938 C621.16517726 267.02064466 623.17668419 268.78414241 625.20355225 270.53710938 C630.43701394 275.10202507 635.51624759 279.83411048 640.6005249 284.56347656 C642.35201083 286.18838933 644.1111882 287.80460393 645.871521 289.41992188 C654.77013762 297.62879727 663.38501257 306.11167677 671.95355225 314.66210938 C672.51835297 315.2243219 673.08315369 315.78653442 673.66506958 316.36578369 C679.26995344 321.95038105 684.84682836 327.52336801 689.95526123 333.57446289 C691.52427923 335.37772639 693.18475953 337.05136893 694.89105225 338.72460938 C697.90518807 341.6919626 700.69022557 344.7980623 703.449646 348.00195312 C705.67909286 350.5543782 707.97106606 353.04348451 710.26605225 355.53710938 C714.40908446 360.07501456 718.31485639 364.75604972 722.17230225 369.53710938 C724.36380492 372.19160557 726.63352907 374.74461823 728.95355225 377.28710938 C732.50426233 381.19227933 735.8449892 385.20381503 739.10980225 389.34960938 C740.84221056 391.53291849 742.59072156 393.6963344 744.35980225 395.84960938 C751.41469977 404.44119611 758.22797914 413.16926836 764.83001709 422.11328125 C766.44390262 424.29609046 768.06729994 426.4715909 769.6918335 428.64648438 C826.29366513 504.64402797 872.54350639 588.39791369 944.86291504 792.20782471 C945.38162768 794.18862 945.90704267 796.16751578 946.43450928 798.14599609 C967.28366969 876.7358862 979.41049236 959.3859622 979.59417725 1040.77148438 C979.60119694 1042.70175703 979.60828378 1044.63202945 979.61543274 1046.56230164 C979.63484543 1052.69974091 979.63986678 1058.8371425 979.64105225 1064.97460938 C979.6414941 1066.01933033 979.64193596 1067.06405128 979.6423912 1068.14043045 C979.64902773 1098.04178586 979.59046958 1127.83634916 976.64752197 1157.62158203 C976.37531107 1160.38437371 976.1146414 1163.14811713 975.85491943 1165.91210938 C973.29838194 1192.81506604 969.82188499 1219.56696508 965.39105225 1246.22460938 C965.19959625 1247.38041504 965.19959625 1247.38041504 965.00427246 1248.55957031 C956.25256504 1301.12251092 942.95371628 1352.61156729 926.39105225 1403.22460938 C926.15793335 1403.93834717 925.92481445 1404.65208496 925.68463135 1405.38745117 C905.44566295 1467.23359922 879.02360179 1527.36217078 847.39105225 1584.22460938 C846.88880127 1585.13259277 846.38655029 1586.04057617 845.86907959 1586.97607422 C831.07046437 1613.69487711 814.90294691 1639.32936 797.81536865 1664.62597656 C795.56884997 1667.95439092 793.34765846 1671.2992046 791.1293335 1674.64648438 C787.89880731 1679.49777537 784.57078034 1684.26248493 781.14105225 1688.97460938 C780.59021973 1689.73410889 780.03938721 1690.4936084 779.47186279 1691.27612305 C773.8623733 1698.98907097 768.15440947 1706.62616344 762.39105225 1714.22460938 C761.96759521 1714.7845459 761.54413818 1715.34448242 761.10784912 1715.92138672 C754.5556839 1724.57367146 747.75391572 1733.00760521 740.8793335 1741.40429688 C739.57695846 1742.99722802 738.28039193 1744.59490458 736.98480225 1746.19335938 C728.72736193 1756.36556847 720.19951337 1766.30352341 711.3949585 1776.00585938 C709.57793243 1778.01769331 707.79160832 1780.05121371 706.01605225 1782.09960938 C701.7463678 1786.99317465 697.35489803 1791.77383014 692.94525146 1796.54101562 C691.92089766 1797.65065179 690.89902305 1798.7625825 689.87982178 1799.87695312 C680.82958733 1809.76966759 671.42345404 1819.29866828 661.95355225 1828.78710938 C661.34359406 1829.39965576 660.73363586 1830.01220215 660.10519409 1830.64331055 C648.06611434 1842.72266291 648.06611434 1842.72266291 642.00604248 1847.82397461 C640.21272576 1849.37926683 638.55276172 1851.03015321 636.89105225 1852.72460938 C633.92369902 1855.7387452 630.81759932 1858.5237827 627.6137085 1861.28320312 C625.06128342 1863.51264999 622.57217711 1865.80462319 620.07855225 1868.09960938 C615.6385444 1872.14982229 611.07170943 1875.97995059 606.3949585 1879.75195312 C602.89437746 1882.6334457 599.48847899 1885.61205499 596.07855225 1888.59960938 C589.64866848 1894.21105581 583.04922369 1899.54220477 576.29241943 1904.75292969 C574.24752733 1906.33569928 572.21320905 1907.93140462 570.18011475 1909.52929688 C560.14743684 1917.40097115 549.97250835 1925.05441316 539.66448975 1932.56152344 C537.5742572 1934.0905896 535.49662719 1935.63500981 533.42230225 1937.18554688 C511.03774135 1953.79043119 487.26796617 1968.87052354 463.39105225 1983.22460938 C462.54462158 1983.73572266 461.69819092 1984.24683594 460.82611084 1984.7734375 C383.3551092 2031.44789053 300.26895256 2068.05454487 184.45068359 2101.68218994 C182.44715988 2102.20983301 180.44509369 2102.74269748 178.44329834 2103.27685547 C99.86145188 2124.11981639 17.22023817 2136.24407084 -64.15582275 2136.42773438 C-66.08609541 2136.43475407 -68.01636783 2136.44184091 -69.94664001 2136.44898987 C-76.08407929 2136.46840256 -82.22148087 2136.4734239 -88.35894775 2136.47460938 C-89.40366871 2136.47505123 -90.44838966 2136.47549309 -91.52476883 2136.47594833 C-121.43404466 2136.48258662 -151.23198789 2136.4159821 -181.02532959 2133.47784424 C-183.74933647 2133.21084909 -186.47436642 2132.95692883 -189.19976807 2132.70458984 C-230.32604476 2128.85501262 -271.19273424 2122.75962717 -311.60894775 2114.22460938 C-312.2606897 2114.08730408 -312.91243164 2113.94999878 -313.58392334 2113.80853271 C-400.91398977 2095.34510457 -484.48526433 2065.44991605 -623.60894775 1995.22460938 C-624.50030426 1994.70867218 -624.50030426 1994.70867218 -625.40966797 1994.18231201 C-643.93489255 1983.4564872 -662.00412288 1972.25099281 -679.69683838 1960.20068359 C-683.1177126 1957.87937609 -686.56248125 1955.59611915 -690.01226807 1953.31811523 C-704.20905375 1943.93419591 -718.02814158 1934.06206514 -731.57769775 1923.76757812 C-733.65830108 1922.18711983 -735.74298444 1920.61214094 -737.82769775 1919.03710938 C-746.988598 1912.09478294 -755.97176042 1904.96058471 -764.85308838 1897.66455078 C-766.41830368 1896.38095236 -767.98976475 1895.10497866 -769.56207275 1893.83007812 C-779.74243224 1885.56969872 -789.68645201 1877.03544425 -799.394104 1868.22460938 C-801.38307277 1866.42857409 -803.3945797 1864.66507634 -805.42144775 1862.91210938 C-810.65490945 1858.34719368 -815.7341431 1853.61510827 -820.81842041 1848.88574219 C-822.56990634 1847.26082942 -824.32908371 1845.64461482 -826.0894165 1844.02929688 C-834.98803313 1835.82042148 -843.60290807 1827.33754198 -852.17144775 1818.78710938 C-852.73624847 1818.22489685 -853.30104919 1817.66268433 -853.88296509 1817.08343506 C-859.48784895 1811.4988377 -865.06472387 1805.92585074 -870.17315674 1799.87475586 C-871.74217474 1798.07149236 -873.40265503 1796.39784982 -875.10894775 1794.72460938 C-878.12308358 1791.75725615 -880.90812108 1788.65115645 -883.6675415 1785.44726562 C-885.89698837 1782.89484055 -888.18896157 1780.40573424 -890.48394775 1777.91210938 C-894.62697997 1773.37420419 -898.5327519 1768.69316903 -902.39019775 1763.91210938 C-904.58170043 1761.25761318 -906.85142458 1758.70460052 -909.17144775 1756.16210938 C-912.74339376 1752.23296877 -916.11156418 1748.19905652 -919.39801025 1744.02929688 C-921.02758359 1741.96209961 -922.66708656 1739.9058801 -924.31988525 1737.85742188 C-960.24786566 1693.29665459 -992.12942378 1645.85898779 -1020.60894775 1596.22460938 C-1021.16662842 1595.2563623 -1021.72430908 1594.28811523 -1022.29888916 1593.29052734 C-1052.30998507 1541.03601631 -1077.51352853 1486.02485288 -1097.60894775 1429.22460938 C-1098.05207306 1427.97741119 -1098.05207306 1427.97741119 -1098.50415039 1426.70501709 C-1129.66582583 1338.9467123 -1148.99964096 1248.1974083 -1156.79644775 1155.41210938 C-1156.88139496 1154.40385101 -1156.96634216 1153.39559265 -1157.05386353 1152.35678101 C-1157.29962981 1149.41074615 -1157.53951435 1146.46429792 -1157.7769165 1143.51757812 C-1157.84652588 1142.67569946 -1157.91613525 1141.8338208 -1157.987854 1140.96643066 C-1159.27185437 1124.6611637 -1159.77423598 1108.3687504 -1159.81207275 1092.01757812 C-1159.81905285 1090.13334634 -1159.8260938 1088.24911477 -1159.83319092 1086.36488342 C-1159.85245563 1080.3806224 -1159.85736626 1074.39639804 -1159.85894775 1068.41210938 C-1159.8595369 1067.39356369 -1159.86012604 1066.37501801 -1159.86073303 1065.3256073 C-1159.87284587 1035.66826186 -1159.6567458 1006.16337741 -1156.83355713 976.61566162 C-1156.60595675 974.19276903 -1156.39420956 971.76896094 -1156.18707275 969.34423828 C-1149.02312818 885.90980066 -1131.17430996 803.54329443 -1083.60894775 667.22460938 C-1083.35026917 666.58563721 -1083.09159058 665.94666504 -1082.82507324 665.28833008 C-1074.9949935 645.99038961 -1066.54233859 627.03975164 -1057.60894775 608.22460938 C-1056.59979464 606.08270045 -1055.59067938 603.94077368 -1054.581604 601.79882812 C-1043.83840895 579.10114365 -1032.16519729 556.96885546 -1019.60894775 535.22460938 C-1018.95378174 534.08443359 -1018.29861572 532.94425781 -1017.62359619 531.76953125 C-1008.7209274 516.28659471 -999.52952988 501.07695294 -989.60699463 486.21875 C-987.81584129 483.53464632 -986.0333221 480.84512879 -984.2542572 478.15301514 C-971.88235487 459.43393324 -959.17594474 441.11306492 -945.503479 423.31445312 C-942.55726239 419.47666571 -939.65478253 415.60989134 -936.77593994 411.72143555 C-931.78724014 404.98833725 -926.58698426 398.51632863 -921.1206665 392.16601562 C-918.9120499 389.57956415 -916.77720208 386.95729269 -914.67144775 384.28710938 C-907.1058627 374.75663822 -899.05759725 365.63200573 -890.83551025 356.66601562 C-888.91761568 354.56306105 -887.0351873 352.43791781 -885.17144775 350.28710938 C-880.42353582 344.83580308 -875.52014554 339.52828828 -870.60894775 334.22460938 C-869.78040283 333.32621338 -869.78040283 333.32621338 -868.93511963 332.40966797 C-860.18937674 322.94325633 -851.21058733 313.72232926 -842.10894775 304.59960938 C-841.59643463 304.08450806 -841.08392151 303.56940674 -840.55587769 303.03869629 C-835.26439205 297.72609522 -829.93458099 292.51224767 -824.23590088 287.63330078 C-822.25972709 285.92223794 -820.42414752 284.10463771 -818.60894775 282.22460938 C-815.45914746 279.03199626 -812.19675287 276.05299658 -808.79644775 273.13085938 C-806.25383376 270.9151529 -803.77784577 268.63362346 -801.29644775 266.34960938 C-796.75854257 262.20657716 -792.07750741 258.30080523 -787.29644775 254.44335938 C-784.64195156 252.2518567 -782.0889389 249.98213255 -779.54644775 247.66210938 C-775.61377643 244.08695362 -771.5765931 240.71569672 -767.4019165 237.42773438 C-765.3715744 235.82617781 -763.35489906 234.21343154 -761.347229 232.58398438 C-750.97558123 224.18325047 -740.3250285 216.17904788 -729.60894775 208.22460938 C-728.80908447 207.6285791 -728.00922119 207.03254883 -727.18511963 206.41845703 C-688.072781 177.27735041 -646.99230638 150.96234757 -604.16119385 127.61621094 C-602.3316891 126.61868108 -600.50410832 125.61761946 -598.67779541 124.61425781 C-544.59405706 94.94765099 -488.00778863 70.98905414 -429.60894775 51.22460938 C-428.94157593 50.99771423 -428.2742041 50.77081909 -427.58660889 50.53704834 C-404.85757404 42.81285502 -381.82637277 36.30385422 -358.60894775 30.22460938 C-357.8322876 30.02115906 -357.05562744 29.81770874 -356.25543213 29.60809326 C-300.25512827 14.99588631 -243.02211158 5.71225619 -185.41125488 0.48175049 C-182.75277845 0.23780735 -180.09565573 -0.0176197 -177.4385376 -0.27587891 C-119.21087653 -5.82698393 -58.213164 -5.56207952 0 0 Z M-531.60894775 170.22460938 C-533.10632022 170.95903203 -534.60371239 171.69341449 -536.10113525 172.42773438 C-539.95414482 174.326975 -543.78306632 176.27142326 -547.60894775 178.22460938 C-548.49904541 178.67594238 -549.38914307 179.12727539 -550.30621338 179.59228516 C-565.07708673 187.09652892 -579.49587482 195.052011 -593.73297119 203.5234375 C-596.4955883 205.157556 -599.2715586 206.76560958 -602.05426025 208.36523438 C-615.99523887 216.41639024 -629.35664025 225.23462424 -642.68218994 234.25097656 C-645.74353514 236.31536717 -648.82270353 238.35043161 -651.90899658 240.37719727 C-660.2040183 245.83635341 -668.24124669 251.64123936 -676.25445557 257.50390625 C-678.63661394 259.2448283 -681.02486467 260.97714989 -683.41363525 262.70898438 C-692.43735335 269.2760886 -701.23152925 276.04452995 -709.84332275 283.14257812 C-713.40110018 286.07181487 -717.02830566 288.90285448 -720.67144775 291.72460938 C-727.5899583 297.1101469 -734.18002444 302.84372415 -740.76959229 308.62353516 C-742.53567803 310.16083145 -744.31599148 311.67898015 -746.1050415 313.18945312 C-754.43446273 320.2252587 -762.41183265 327.57858115 -770.32183838 335.08105469 C-772.53692113 337.15710364 -774.77562186 339.20573241 -777.01783752 341.25238037 C-784.54973147 348.14323049 -791.81638861 355.27820639 -799.02252197 362.5078125 C-800.99940786 364.49011182 -802.98165814 366.4669357 -804.9644165 368.44335938 C-813.26832611 376.74008377 -813.26832611 376.74008377 -821.10455322 385.47509766 C-823.94175357 388.77457473 -826.98477635 391.88554974 -829.98394775 395.03710938 C-835.06958394 400.41709508 -839.89973312 405.86964725 -844.5112915 411.66210938 C-846.74112637 414.38607896 -849.08848894 416.95796123 -851.48394775 419.53710938 C-855.66879829 424.08950456 -859.51955502 428.80920406 -863.30084229 433.6940918 C-866.22792108 437.4746901 -869.20989348 441.19968891 -872.24835205 444.89135742 C-879.73226287 453.99071299 -886.83937346 463.34730414 -893.83599854 472.82519531 C-895.41829189 474.96658599 -897.01077333 477.09994761 -898.6050415 479.23242188 C-927.37815553 518.07756879 -952.46095086 559.76061523 -975.10748291 602.40966797 C-976.3993624 604.83167943 -977.70693506 607.24363007 -979.0269165 609.65039062 C-985.61857062 621.73705515 -991.29473984 634.25468479 -997.01861572 646.76757812 C-998.45862258 649.89783559 -999.92027067 653.01642382 -1001.394104 656.13085938 C-1036.20759529 730.06486296 -1059.91126488 810.48188745 -1086.60894775 989.22460938 C-1086.66610962 989.92837708 -1086.72327148 990.63214478 -1086.78216553 991.35723877 C-1094.06549378 1081.89968969 -1087.67758262 1173.45304227 -987.60894775 1506.22460938 C-987.23995361 1506.97774414 -986.87095947 1507.73087891 -986.49078369 1508.50683594 C-984.61949984 1512.32559296 -982.71823106 1516.12763496 -980.78619385 1519.91601562 C-979.9011111 1521.65167355 -979.01915092 1523.38892435 -978.13873291 1525.12695312 C-970.32763908 1540.52056891 -962.11747886 1555.5817327 -953.27642822 1570.40722656 C-951.69733975 1573.07526184 -950.14964516 1575.75860374 -948.612854 1578.45117188 C-939.13328856 1594.96235992 -928.48317166 1610.68153138 -917.81646729 1626.43902588 C-916.13842475 1628.92038123 -914.46799321 1631.40684309 -912.79644775 1633.89257812 C-897.68066444 1656.27785247 -881.14557596 1677.6077009 -864.02838135 1698.48925781 C-862.76446157 1700.03448344 -861.50840986 1701.58613718 -860.253479 1703.13867188 C-851.29462468 1714.20261218 -841.92854493 1724.9149491 -832.24176025 1735.34570312 C-830.19679082 1737.58181955 -828.19175246 1739.83791992 -826.20269775 1742.12304688 C-815.21874319 1754.71271293 -803.406424 1766.52978172 -791.60894775 1778.34960938 C-790.66133575 1779.30110367 -790.66133575 1779.30110367 -789.69458008 1780.27182007 C-780.7770346 1789.23551041 -780.7770346 1789.23551041 -771.38482666 1797.69384766 C-768.07924123 1800.54317686 -764.95712502 1803.5917612 -761.79644775 1806.59960938 C-756.41646205 1811.68524556 -750.96390988 1816.51539474 -745.17144775 1821.12695312 C-742.44747816 1823.35678799 -739.8755959 1825.70415056 -737.29644775 1828.09960938 C-732.74405257 1832.28445991 -728.02435307 1836.13521665 -723.13946533 1839.91650391 C-719.35886703 1842.8435827 -715.63386822 1845.8255551 -711.94219971 1848.86401367 C-705.32178411 1854.30908058 -698.59152123 1859.58109528 -691.73394775 1864.72460938 C-690.99322021 1865.28051758 -690.25249268 1865.83642578 -689.48931885 1866.40917969 C-686.87155146 1868.36019381 -684.24220121 1870.29453377 -681.60894775 1872.22460938 C-680.98472931 1872.68287109 -680.36051086 1873.14113281 -679.71737671 1873.61328125 C-668.10708863 1882.12070637 -656.29008331 1890.26842364 -644.29644775 1898.22460938 C-643.4432193 1898.79176666 -642.58999084 1899.35892395 -641.71090698 1899.94326782 C-629.15833591 1908.28305498 -616.59038068 1916.56209562 -603.60894775 1924.22460938 C-602.12974854 1925.09786865 -602.12974854 1925.09786865 -600.6206665 1925.98876953 C-585.13962337 1935.08789913 -569.45864635 1943.78654444 -553.60894775 1952.22460938 C-552.67550537 1952.72557129 -551.74206299 1953.2265332 -550.78033447 1953.74267578 C-535.00892937 1962.19900895 -518.92306813 1969.87656607 -502.60894775 1977.22460938 C-501.97476929 1977.51076111 -501.34059082 1977.79691284 -500.68719482 1978.09173584 C-425.82849681 2011.836659 -346.79812127 2036.53569283 217.07824707 2017.9831543 C219.41575637 2017.21650701 221.75510051 2016.45566054 224.09466553 2015.6953125 C267.14945626 2001.65469879 308.73263804 1984.13786404 349.39105225 1964.22460938 C350.10664307 1963.8751123 350.82223389 1963.52561523 351.55950928 1963.16552734 C355.37452647 1961.29712484 359.17069631 1959.39416313 362.95550537 1957.46533203 C364.80178345 1956.52479623 366.64973903 1955.58755247 368.49847412 1954.65185547 C384.4894031 1946.54615525 400.2063575 1938.13807823 415.5848999 1928.90576172 C418.25537387 1927.30589363 420.93699089 1925.72652179 423.621521 1924.15039062 C436.51091556 1916.51253976 448.98932142 1908.28146729 461.45355225 1899.97460938 C462.28798859 1899.41898315 463.12242493 1898.86335693 463.98214722 1898.29089355 C474.24950392 1891.44506236 484.40579722 1884.47598756 494.39105225 1877.22460938 C495.26125 1876.59409668 496.13144775 1875.96358398 497.02801514 1875.31396484 C507.31905502 1867.82785507 517.44920048 1860.16797186 527.39105225 1852.22460938 C528.28050537 1851.51820312 529.1699585 1850.81179688 530.08636475 1850.08398438 C540.09927412 1842.11132299 549.95658266 1833.96074436 559.699646 1825.66162109 C561.38397831 1824.23061936 563.07451504 1822.80723903 564.76605225 1821.38476562 C573.14082407 1814.31212494 581.15618066 1806.90705008 589.10784912 1799.36425781 C591.30420439 1797.30599674 593.52478825 1795.27600745 595.74891663 1793.24786377 C603.59791205 1786.07164786 611.15115515 1778.61765551 618.65911865 1771.08691406 C620.78086233 1768.95976153 622.90796716 1766.83807377 625.0355835 1764.71679688 C626.41220665 1763.33951355 627.78851991 1761.96192039 629.16448975 1760.58398438 C629.78753998 1759.96295837 630.41059021 1759.34193237 631.05252075 1758.7020874 C634.78066455 1754.95429768 638.32446651 1751.09279682 641.77206421 1747.08514404 C644.55762096 1743.88399321 647.48108071 1740.81227372 650.39105225 1737.72460938 C655.15783681 1732.6383369 659.86037445 1727.52336345 664.39105225 1722.22460938 C665.2890478 1721.19167291 666.18753293 1720.15916197 667.08636475 1719.12695312 C672.70071473 1712.65637822 678.14362642 1706.09097978 683.3949585 1699.32226562 C686.23024714 1695.67457336 689.14584079 1692.1187357 692.14105225 1688.59960938 C698.5996219 1680.90450977 704.53698026 1672.82038615 710.51361084 1664.74902344 C712.22613926 1662.44635194 713.95512393 1660.15750004 715.6918335 1657.87304688 C726.89518602 1643.03918114 737.0365583 1627.47655706 747.25115967 1611.95495605 C748.73612405 1609.70079349 750.22809835 1607.45129288 751.71917725 1605.20117188 C768.19437086 1580.19412876 782.983041 1554.03147498 796.69573975 1527.42382812 C798.25142129 1524.40705999 799.82257663 1521.40408005 801.46136475 1518.43164062 C808.46302678 1505.70267765 814.40752208 1492.45375854 820.39105225 1479.22460938 C820.81961517 1478.27820587 820.81961517 1478.27820587 821.25683594 1477.31268311 C857.06261644 1398.13388191 882.08096008 1314.56817086 860.39105225 757.22460938 C860.14933289 756.48545288 859.90761353 755.74629639 859.65856934 754.98474121 C846.01947475 713.30093465 829.39245133 673.03732222 810.64105225 633.41210938 C810.25285309 632.58996948 809.86465393 631.76782959 809.46469116 630.92077637 C801.5668762 614.22980517 792.99871032 597.91854861 784.01605225 581.78710938 C783.37667725 580.63879639 782.73730225 579.4904834 782.07855225 578.30737305 C776.40045471 568.14359962 770.48940332 558.14085972 764.39105225 548.22460938 C763.84046143 547.32274902 763.28987061 546.42088867 762.72259521 545.49169922 C749.49065561 523.84651627 735.38410817 502.69393289 720.39105225 482.22460938 C719.86737061 481.50547363 719.34368896 480.78633789 718.80413818 480.04541016 C707.59744644 464.66225272 695.89841289 449.76086881 683.85882568 435.02441406 C682.57609092 433.45150644 681.29945811 431.87362654 680.02386475 430.29492188 C671.06666468 419.23786538 661.70633056 408.52961909 652.02386475 398.10351562 C649.97889531 395.8673992 647.97385695 393.61129883 645.98480225 391.32617188 C635.00084768 378.73650582 623.1885285 366.91943703 611.39105225 355.09960938 C610.75931091 354.46527985 610.12756958 353.83095032 609.47668457 353.17739868 C600.55014434 344.2025139 600.55014434 344.2025139 591.14886475 335.73291016 C587.96647953 333.00224684 584.94210793 330.10007905 581.89105225 327.22460938 C576.80489594 322.45793369 571.69185203 317.75278336 566.39105225 313.22460938 C565.40363037 312.36996094 564.4162085 311.5153125 563.39886475 310.63476562 C550.14830245 299.1839238 536.66768309 288.07181533 522.699646 277.50585938 C519.77052034 275.28684499 516.87032941 273.03621472 513.9887085 270.75585938 C504.89422045 263.56667454 495.61997022 256.81089934 485.9887085 250.35742188 C482.59690595 248.07589228 479.28717966 245.702945 475.99261475 243.28320312 C470.67488828 239.39391956 465.23367195 235.7410829 459.70355225 232.16210938 C458.71588867 231.52144531 457.7282251 230.88078125 456.71063232 230.22070312 C429.88570832 212.87523171 402.5209406 196.74761239 374.30072021 181.7734375 C371.70024538 180.38919414 369.10852164 178.9903308 366.5199585 177.58398438 C352.7787779 170.16330383 338.60349723 163.6811201 324.39105225 157.22460938 C323.26602295 156.7110791 322.14099365 156.19754883 320.98187256 155.66845703 C243.61016282 120.42839761 161.27121561 95.16300783 -12.60894775 70.22460938 C-13.31271545 70.16744751 -14.01648315 70.11028564 -14.74157715 70.0513916 C-105.28402807 62.76806335 -196.83738065 69.15597451 -531.60894775 170.22460938 Z " fill="#FFFFFF" transform="translate(1369.6089477539063,212.775390625)"/>
<path d="M0 0 C3.6023438 0.01709056 7.20402179 0.00688615 10.80634308 -0.01032257 C37.45614599 -0.11786682 63.94798828 1.71313713 90.32275391 5.64111328 C91.3731636 5.79501526 91.3731636 5.79501526 92.4447937 5.95202637 C143.38175216 13.45957979 193.79338367 27.33065135 240.82275391 48.39111328 C241.76151367 48.80361328 242.70027344 49.21611328 243.66748047 49.64111328 C290.57025247 70.27015682 335.21838328 96.77982209 374.82275391 129.39111328 C375.66322266 130.07044922 376.50369141 130.74978516 377.36962891 131.44970703 C394.35587267 145.22034684 410.50290263 159.78461198 425.82275391 175.39111328 C429.26454475 173.17853345 432.39183278 171.06257509 435.19775391 168.07861328 C437.53395635 165.67130902 439.90601016 163.39293037 442.44775391 161.20361328 C446.10419502 158.05028712 449.65755739 154.79834676 453.19775391 151.51611328 C458.69428334 146.4231945 464.23977823 141.38929281 469.82275391 136.39111328 C475.70078329 131.12082845 481.54775775 125.81879143 487.36132812 120.47753906 C491.30338592 116.85882852 495.27774887 113.27765626 499.26025391 109.70361328 C502.128758 107.11496325 504.97752041 104.50526182 507.82275391 101.89111328 C512.27340237 97.8019388 516.75353473 93.74742244 521.25244141 89.71142578 C524.16703838 87.08031545 527.05814615 84.42458853 529.94775391 81.76611328 C533.18488481 78.78888688 536.43413247 75.83158362 539.76025391 72.95361328 C543.89186291 69.37174019 547.89205317 65.6527337 551.90234375 61.93652344 C555.99969319 58.14224289 560.13686164 54.39564882 564.29541016 50.66845703 C567.15357594 48.09301553 569.98985652 45.49425564 572.82275391 42.89111328 C577.27337369 38.80190783 581.75353508 34.74742213 586.25244141 30.71142578 C589.16704248 28.08031175 592.05786477 25.42428733 594.94775391 22.76611328 C601.17834194 17.04672782 607.47509422 11.44918634 614.01025391 6.07861328 C614.80818359 5.42248047 615.60611328 4.76634766 616.42822266 4.09033203 C623.26106606 -0.75842308 630.78956908 -0.27618003 638.82275391 0.39111328 C645.52734559 2.03858682 649.94820519 6.87846422 653.82275391 12.39111328 C656.56883376 16.98502257 657.25475109 20.42838259 657.26025391 25.76611328 C657.27958984 27.01134766 657.29892578 28.25658203 657.31884766 29.53955078 C656.25814781 37.7745905 651.93629892 42.8790942 646.07275391 48.45361328 C645.13133545 49.37074097 645.13133545 49.37074097 644.17089844 50.30639648 C640.5001201 53.85988087 636.76631487 57.32387247 632.86962891 60.62939453 C630.17442894 62.94911816 627.56278226 65.35706039 624.94775391 67.76611328 C621.25752538 71.16179217 617.55569617 74.54226797 613.82275391 77.89111328 C610.13444959 81.20112998 606.47204916 84.53820749 602.82275391 87.89111328 C598.36939904 91.98277435 593.88615536 96.03934274 589.38525391 100.07861328 C586.51674946 102.66726364 583.66802409 105.27700437 580.82275391 107.89111328 C574.72288247 113.49414504 568.56714228 119.03324242 562.40087891 124.56298828 C557.33403382 129.11346699 552.29912902 133.69717296 547.28417969 138.3046875 C543.34212189 141.92339804 539.36775894 145.5045703 535.38525391 149.07861328 C532.51674982 151.66726331 529.6679874 154.27696474 526.82275391 156.89111328 C522.36939904 160.98277435 517.88615536 165.03934274 513.38525391 169.07861328 C510.51674946 171.66726364 507.66802409 174.27700437 504.82275391 176.89111328 C498.72288247 182.49414504 492.56714228 188.03324242 486.40087891 193.56298828 C481.33403382 198.11346699 476.29912902 202.69717296 471.28417969 207.3046875 C467.34212189 210.92339804 463.36775894 214.5045703 459.38525391 218.07861328 C456.51674982 220.66726331 453.6679874 223.27696474 450.82275391 225.89111328 C446.37210544 229.98028776 441.89197308 234.03480412 437.39306641 238.07080078 C434.47846944 240.70191111 431.58736166 243.35763803 428.69775391 246.01611328 C425.460623 248.99333968 422.21137535 251.95064294 418.88525391 254.82861328 C414.7536449 258.41048637 410.75345464 262.12949286 406.74316406 265.84570312 C402.64581462 269.63998367 398.50864617 273.38657775 394.35009766 277.11376953 C391.49193187 279.68921103 388.65565129 282.28797092 385.82275391 284.89111328 C381.37213412 288.98031874 376.89197273 293.03480443 372.39306641 297.07080078 C369.47846944 299.70191111 366.58736166 302.35763803 363.69775391 305.01611328 C360.460623 307.99333968 357.21137535 310.95064294 353.88525391 313.82861328 C349.7536449 317.41048637 345.75345464 321.12949286 341.74316406 324.84570312 C337.64581462 328.63998367 333.50864617 332.38657775 329.35009766 336.11376953 C326.49193187 338.68921103 323.65565129 341.28797092 320.82275391 343.89111328 C316.36942773 347.98280535 311.88615502 352.03934305 307.38525391 356.07861328 C304.51674946 358.66726364 301.66802409 361.27700437 298.82275391 363.89111328 C292.72288247 369.49414504 286.56714228 375.03324242 280.40087891 380.56298828 C275.33403382 385.11346699 270.29912902 389.69717296 265.28417969 394.3046875 C261.34212189 397.92339804 257.36775894 401.5045703 253.38525391 405.07861328 C250.51674982 407.66726331 247.6679874 410.27696474 244.82275391 412.89111328 C240.37210544 416.98028776 235.89197308 421.03480412 231.39306641 425.07080078 C228.47846944 427.70191111 225.58736166 430.35763803 222.69775391 433.01611328 C219.460623 435.99333968 216.21137535 438.95064294 212.88525391 441.82861328 C208.7536449 445.41048637 204.75345464 449.12949286 200.74316406 452.84570312 C196.64581462 456.63998367 192.50864617 460.38657775 188.35009766 464.11376953 C185.49193187 466.68921103 182.65565129 469.28797092 179.82275391 471.89111328 C175.36942773 475.98280535 170.88615502 480.03934305 166.38525391 484.07861328 C163.51674946 486.66726364 160.66802409 489.27700437 157.82275391 491.89111328 C151.72288247 497.49414504 145.56714228 503.03324242 139.40087891 508.56298828 C134.33403382 513.11346699 129.29912902 517.69717296 124.28417969 522.3046875 C120.34212189 525.92339804 116.36775894 529.5045703 112.38525391 533.07861328 C109.51674982 535.66726331 106.6679874 538.27696474 103.82275391 540.89111328 C99.37210544 544.98028776 94.89197308 549.03480412 90.39306641 553.07080078 C87.47846944 555.70191111 84.58736166 558.35763803 81.69775391 561.01611328 C78.460623 563.99333968 75.21137535 566.95064294 71.88525391 569.82861328 C67.7536449 573.41048637 63.75345464 577.12949286 59.74316406 580.84570312 C55.64581462 584.63998367 51.50864617 588.38657775 47.35009766 592.11376953 C44.49193187 594.68921103 41.65565129 597.28797092 38.82275391 599.89111328 C34.37213412 603.98031874 29.89197273 608.03480443 25.39306641 612.07080078 C22.47846944 614.70191111 19.58736166 617.35763803 16.69775391 620.01611328 C13.460623 622.99333968 10.21137535 625.95064294 6.88525391 628.82861328 C2.7536449 632.41048637 -1.24654536 636.12949286 -5.25683594 639.84570312 C-9.35418538 643.63998367 -13.49135383 647.38657775 -17.64990234 651.11376953 C-20.50806813 653.68921103 -23.34434871 656.28797092 -26.17724609 658.89111328 C-30.63057227 662.98280535 -35.11384498 667.03934305 -39.61474609 671.07861328 C-42.48325054 673.66726364 -45.33197591 676.27700437 -48.17724609 678.89111328 C-54.27711753 684.49414504 -60.43285772 690.03324242 -66.59912109 695.56298828 C-71.66596618 700.11346699 -76.70087098 704.69717296 -81.71582031 709.3046875 C-85.65787811 712.92339804 -89.63224106 716.5045703 -93.61474609 720.07861328 C-96.48325018 722.66726331 -99.3320126 725.27696474 -102.17724609 727.89111328 C-106.62789456 731.98028776 -111.10802692 736.03480412 -115.60693359 740.07080078 C-118.52153056 742.70191111 -121.41263834 745.35763803 -124.30224609 748.01611328 C-127.539377 750.99333968 -130.78862465 753.95064294 -134.11474609 756.82861328 C-138.2463551 760.41048637 -142.24654536 764.12949286 -146.25683594 767.84570312 C-150.35418538 771.63998367 -154.49135383 775.38657775 -158.64990234 779.11376953 C-161.50806813 781.68921103 -164.34434871 784.28797092 -167.17724609 786.89111328 C-171.63057227 790.98280535 -176.11384498 795.03934305 -180.61474609 799.07861328 C-183.48325054 801.66726364 -186.33197591 804.27700437 -189.17724609 806.89111328 C-195.27711753 812.49414504 -201.43285772 818.03324242 -207.59912109 823.56298828 C-212.66596618 828.11346699 -217.70087098 832.69717296 -222.71582031 837.3046875 C-226.65787811 840.92339804 -230.63224106 844.5045703 -234.61474609 848.07861328 C-237.48325018 850.66726331 -240.3320126 853.27696474 -243.17724609 855.89111328 C-247.62789456 859.98028776 -252.10802692 864.03480412 -256.60693359 868.07080078 C-259.52153056 870.70191111 -262.41263834 873.35763803 -265.30224609 876.01611328 C-268.539377 878.99333968 -271.78862465 881.95064294 -275.11474609 884.82861328 C-279.2463551 888.41048637 -283.24654536 892.12949286 -287.25683594 895.84570312 C-291.35418538 899.63998367 -295.49135383 903.38657775 -299.64990234 907.11376953 C-302.50806813 909.68921103 -305.34434871 912.28797092 -308.17724609 914.89111328 C-312.62786588 918.98031874 -317.10802727 923.03480443 -321.60693359 927.07080078 C-324.52153056 929.70191111 -327.41263834 932.35763803 -330.30224609 935.01611328 C-333.539377 937.99333968 -336.78862465 940.95064294 -340.11474609 943.82861328 C-344.2463551 947.41048637 -348.24654536 951.12949286 -352.25683594 954.84570312 C-356.35418538 958.63998367 -360.49135383 962.38657775 -364.64990234 966.11376953 C-367.50806813 968.68921103 -370.34434871 971.28797092 -373.17724609 973.89111328 C-377.63057227 977.98280535 -382.11384498 982.03934305 -386.61474609 986.07861328 C-389.48325054 988.66726364 -392.33197591 991.27700437 -395.17724609 993.89111328 C-401.27711753 999.49414504 -407.43285772 1005.03324242 -413.59912109 1010.56298828 C-418.66596618 1015.11346699 -423.70087098 1019.69717296 -428.71582031 1024.3046875 C-432.65787811 1027.92339804 -436.63224106 1031.5045703 -440.61474609 1035.07861328 C-443.48325018 1037.66726331 -446.3320126 1040.27696474 -449.17724609 1042.89111328 C-453.62789456 1046.98028776 -458.10802692 1051.03480412 -462.60693359 1055.07080078 C-465.52153056 1057.70191111 -468.41263834 1060.35763803 -471.30224609 1063.01611328 C-474.539377 1065.99333968 -477.78862465 1068.95064294 -481.11474609 1071.82861328 C-485.2463551 1075.41048637 -489.24654536 1079.12949286 -493.25683594 1082.84570312 C-497.35418538 1086.63998367 -501.49135383 1090.38657775 -505.64990234 1094.11376953 C-508.50806813 1096.68921103 -511.34434871 1099.28797092 -514.17724609 1101.89111328 C-518.63057227 1105.98280535 -523.11384498 1110.03934305 -527.61474609 1114.07861328 C-530.48325311 1116.66726596 -533.33171327 1119.27728813 -536.17724609 1121.89111328 C-537.69195166 1123.27991559 -539.20697394 1124.66837126 -540.72216797 1126.05664062 C-542.10976549 1127.32922587 -543.4951263 1128.60424868 -544.88037109 1129.87939453 C-555.11343199 1139.21784734 -562.04329236 1145.19728202 -576.44287109 1144.76220703 C-584.71654601 1143.94003222 -589.5273698 1139.59758761 -594.76708984 1133.45361328 C-599.3532671 1126.74585264 -598.84795951 1119.18298154 -598.17724609 1111.39111328 C-596.61209582 1105.79887367 -593.43090415 1102.2666684 -589.17724609 1098.39111328 C-587.73620992 1096.93627408 -586.29908206 1095.47755869 -584.86474609 1094.01611328 C-581.48696646 1090.63833365 -578.02232377 1087.43971876 -574.39990234 1084.32861328 C-571.65731327 1081.93788537 -568.97866536 1079.48022552 -566.30224609 1077.01611328 C-562.61190173 1073.62055803 -558.91019063 1070.23996063 -555.17724609 1066.89111328 C-551.48894178 1063.58109659 -547.82654134 1060.24401907 -544.17724609 1056.89111328 C-539.72389123 1052.79945221 -535.24064755 1048.74288382 -530.73974609 1044.70361328 C-527.87124165 1042.11496293 -525.02251628 1039.5052222 -522.17724609 1036.89111328 C-516.07737466 1031.28808152 -509.92163447 1025.74898414 -503.75537109 1020.21923828 C-498.68852601 1015.66875957 -493.65362121 1011.08505361 -488.63867188 1006.47753906 C-484.69661408 1002.85882852 -480.72225113 999.27765626 -476.73974609 995.70361328 C-473.36288241 992.65619971 -470.01395283 989.57871358 -466.66455078 986.5012207 C-461.86634703 982.09663178 -457.02815741 977.73761568 -452.17724609 973.39111328 C-455.0709036 968.89743339 -458.22864572 964.77137476 -461.61474609 960.64111328 C-478.80569822 939.34100138 -494.67096303 916.21081231 -508.17724609 892.39111328 C-508.55187988 891.7351416 -508.92651367 891.07916992 -509.3125 890.40332031 C-527.44552774 858.55399987 -542.67616952 825.82137514 -555.17724609 791.39111328 C-555.60134766 790.22499512 -556.02544922 789.05887695 -556.46240234 787.85742188 C-569.98688645 750.1685233 -578.53539819 710.87929835 -583.98974609 671.26611328 C-584.08929596 670.55252655 -584.18884583 669.83893982 -584.29141235 669.10372925 C-587.75370762 643.93810386 -588.55446479 618.81541272 -588.48974609 593.45361328 C-588.4875234 591.9125672 -588.48534689 590.37152106 -588.48321533 588.83047485 C-588.44256986 567.62042446 -588.27973549 546.53461292 -585.45587158 525.47570801 C-585.15372881 523.21516383 -584.86429657 520.95316539 -584.57519531 518.69091797 C-573.15149001 430.42217908 -542.93088219 344.59260554 -467.17724609 232.39111328 C-466.45384033 231.44244385 -466.45384033 231.44244385 -465.71582031 230.47460938 C-456.81281133 218.83598757 -447.29806291 207.71737003 -437.43432617 196.88354492 C-436.04579853 195.35023193 -434.66552318 193.80933782 -433.29931641 192.25610352 C-426.9864949 185.10712096 -420.30058882 178.36176668 -413.54760742 171.63110352 C-411.6111406 169.70001781 -409.68010653 167.76361446 -407.74951172 165.82666016 C-401.72855267 159.80207111 -395.70157817 153.87537439 -389.17724609 148.39111328 C-387.93837328 147.31125068 -386.7014095 146.22919425 -385.46630859 145.14501953 C-384.24512044 144.08102688 -383.023767 143.0172239 -381.80224609 141.95361328 C-381.20669922 141.4321875 -380.61115234 140.91076172 -379.99755859 140.37353516 C-374.8447373 135.89210901 -369.53191935 131.62814931 -364.17724609 127.39111328 C-363.44054687 126.80370361 -362.70384766 126.21629395 -361.94482422 125.61108398 C-338.82504542 107.26818325 -313.92750275 90.79661862 -288.17724609 76.39111328 C-287.24750977 75.86791504 -286.31777344 75.3447168 -285.35986328 74.80566406 C-207.53777636 31.21850326 -121.39745623 6.43167474 0 0 Z M-239.17724609 108.39111328 C-240.73137207 109.16624268 -240.73137207 109.16624268 -242.31689453 109.95703125 C-271.69527923 124.68248202 -299.18041209 142.30328561 -325.17724609 162.39111328 C-325.7744043 162.849375 -326.3715625 163.30763672 -326.98681641 163.77978516 C-339.74064177 173.57972726 -351.87030384 184.03715256 -363.65332031 194.98046875 C-365.25028298 196.45872096 -366.85542867 197.92765965 -368.46240234 199.39501953 C-377.08846595 207.2838666 -385.60298624 215.24410175 -393.20849609 224.14111328 C-395.25501709 226.47999442 -397.36119653 228.75181235 -399.48266602 231.02246094 C-405.32054961 237.27532553 -410.85992645 243.68466688 -416.17724609 250.39111328 C-417.01312294 251.43413065 -417.84906293 252.4770974 -418.68505859 253.52001953 C-443.96094465 285.20946898 -465.00291143 319.18797296 -483.17724609 355.39111328 C-483.63728027 356.30183594 -484.09731445 357.21255859 -484.57128906 358.15087891 C-524.4284944 437.53327197 -541.5779413 529.10271632 -509.92724609 765.95361328 C-501.81826507 790.20649689 -491.63389021 813.53599907 -480.17724609 836.39111328 C-479.66049316 837.42719727 -479.14374023 838.46328125 -478.61132812 839.53076172 C-463.88415481 868.91258303 -446.25621263 896.38420024 -426.17724609 922.39111328 C-425.67112793 923.05208008 -425.16500977 923.71304688 -424.64355469 924.39404297 C-423.13997676 926.35613867 -421.629089 928.31231796 -420.11474609 930.26611328 C-419.43460449 931.15073242 -419.43460449 931.15073242 -418.74072266 932.05322266 C-416.67850204 934.68697746 -414.98892198 936.51666269 -412.17724609 938.39111328 C-411.73445313 937.97337646 -411.29166016 937.55563965 -410.83544922 937.12524414 C-408.78409692 935.19156177 -406.73068292 933.26008179 -404.67724609 931.32861328 C-403.98115234 930.67183594 -403.28505859 930.01505859 -402.56787109 929.33837891 C-398.46786768 925.48513496 -394.30570107 921.72539834 -390.05712891 918.03686523 C-387.25504994 915.58377247 -384.52770442 913.05363842 -381.80224609 910.51611328 C-376.30681295 905.42202753 -370.76019886 900.38927231 -365.17724609 895.39111328 C-359.29921671 890.12082845 -353.45224225 884.81879143 -347.63867188 879.47753906 C-343.69661408 875.85882852 -339.72225113 872.27765626 -335.73974609 868.70361328 C-332.871242 866.11496325 -330.02247959 863.50526182 -327.17724609 860.89111328 C-322.72659763 856.8019388 -318.24646527 852.74742244 -313.74755859 848.71142578 C-310.83296162 846.08031545 -307.94185385 843.42458853 -305.05224609 840.76611328 C-301.81511519 837.78888688 -298.56586753 834.83158362 -295.23974609 831.95361328 C-291.10813709 828.37174019 -287.10794683 824.6527337 -283.09765625 820.93652344 C-279.00030681 817.14224289 -274.86313836 813.39564882 -270.70458984 809.66845703 C-267.84642406 807.09301553 -265.01014348 804.49425564 -262.17724609 801.89111328 C-257.72391992 797.79942121 -253.24064721 793.74288352 -248.73974609 789.70361328 C-245.87124165 787.11496293 -243.02251628 784.5052222 -240.17724609 781.89111328 C-234.07737466 776.28808152 -227.92163447 770.74898414 -221.75537109 765.21923828 C-216.68852601 760.66875957 -211.65362121 756.08505361 -206.63867188 751.47753906 C-202.69661408 747.85882852 -198.72225113 744.27765626 -194.73974609 740.70361328 C-191.871242 738.11496325 -189.02247959 735.50526182 -186.17724609 732.89111328 C-181.72659763 728.8019388 -177.24646527 724.74742244 -172.74755859 720.71142578 C-169.83296162 718.08031545 -166.94185385 715.42458853 -164.05224609 712.76611328 C-160.81511519 709.78888688 -157.56586753 706.83158362 -154.23974609 703.95361328 C-150.10813709 700.37174019 -146.10794683 696.6527337 -142.09765625 692.93652344 C-138.00030681 689.14224289 -133.86313836 685.39564882 -129.70458984 681.66845703 C-126.84642406 679.09301553 -124.01014348 676.49425564 -121.17724609 673.89111328 C-116.72662631 669.80190783 -112.24646492 665.74742213 -107.74755859 661.71142578 C-104.83296162 659.08031545 -101.94185385 656.42458853 -99.05224609 653.76611328 C-95.81511519 650.78888688 -92.56586753 647.83158362 -89.23974609 644.95361328 C-85.10813709 641.37174019 -81.10794683 637.6527337 -77.09765625 633.93652344 C-73.00030681 630.14224289 -68.86313836 626.39564882 -64.70458984 622.66845703 C-61.84642406 620.09301553 -59.01014348 617.49425564 -56.17724609 614.89111328 C-51.72391992 610.79942121 -47.24064721 606.74288352 -42.73974609 602.70361328 C-39.87124165 600.11496293 -37.02251628 597.5052222 -34.17724609 594.89111328 C-28.07737466 589.28808152 -21.92163447 583.74898414 -15.75537109 578.21923828 C-10.68852601 573.66875957 -5.65362121 569.08505361 -0.63867188 564.47753906 C3.30338592 560.85882852 7.27774887 557.27765626 11.26025391 553.70361328 C14.128758 551.11496325 16.97752041 548.50526182 19.82275391 545.89111328 C24.27340237 541.8019388 28.75353473 537.74742244 33.25244141 533.71142578 C36.16703838 531.08031545 39.05814615 528.42458853 41.94775391 525.76611328 C45.18488481 522.78888688 48.43413247 519.83158362 51.76025391 516.95361328 C55.89186291 513.37174019 59.89205317 509.6527337 63.90234375 505.93652344 C67.99969319 502.14224289 72.13686164 498.39564882 76.29541016 494.66845703 C79.15357594 492.09301553 81.98985652 489.49425564 84.82275391 486.89111328 C89.27608008 482.79942121 93.75935279 478.74288352 98.26025391 474.70361328 C101.12875835 472.11496293 103.97748372 469.5052222 106.82275391 466.89111328 C112.92262534 461.28808152 119.07836553 455.74898414 125.24462891 450.21923828 C130.31147399 445.66875957 135.34637879 441.08505361 140.36132812 436.47753906 C144.30338592 432.85882852 148.27774887 429.27765626 152.26025391 425.70361328 C155.128758 423.11496325 157.97752041 420.50526182 160.82275391 417.89111328 C165.27340237 413.8019388 169.75353473 409.74742244 174.25244141 405.71142578 C177.16703838 403.08031545 180.05814615 400.42458853 182.94775391 397.76611328 C186.18488481 394.78888688 189.43413247 391.83158362 192.76025391 388.95361328 C196.89186291 385.37174019 200.89205317 381.6527337 204.90234375 377.93652344 C208.99969319 374.14224289 213.13686164 370.39564882 217.29541016 366.66845703 C220.15357594 364.09301553 222.98985652 361.49425564 225.82275391 358.89111328 C230.27337369 354.80190783 234.75353508 350.74742213 239.25244141 346.71142578 C242.16703838 344.08031545 245.05814615 341.42458853 247.94775391 338.76611328 C251.18488481 335.78888688 254.43413247 332.83158362 257.76025391 329.95361328 C261.89186291 326.37174019 265.89205317 322.6527337 269.90234375 318.93652344 C273.99969319 315.14224289 278.13686164 311.39564882 282.29541016 307.66845703 C285.15357594 305.09301553 287.98985652 302.49425564 290.82275391 299.89111328 C295.27608008 295.79942121 299.75935279 291.74288352 304.26025391 287.70361328 C307.12875835 285.11496293 309.97748372 282.5052222 312.82275391 279.89111328 C318.92262534 274.28808152 325.07836553 268.74898414 331.24462891 263.21923828 C336.31147399 258.66875957 341.34637879 254.08505361 346.36132812 249.47753906 C350.30338592 245.85882852 354.27774887 242.27765626 358.26025391 238.70361328 C361.12875907 236.11496228 363.97741027 233.50514286 366.82275391 230.89111328 C382.00139884 216.95590294 382.00139884 216.95590294 388.82275391 211.39111328 C384.68214271 206.39951758 380.35082753 201.89519439 375.57275391 197.51611328 C374.91307617 196.90678955 374.25339844 196.29746582 373.57373047 195.66967773 C371.66069375 193.90579066 369.74238092 192.14782184 367.82275391 190.39111328 C366.89462891 189.53646484 365.96650391 188.68181641 365.01025391 187.80126953 C359.12741124 182.43694665 353.03798726 177.3649442 346.82275391 172.39111328 C346.31292969 171.9816748 345.80310547 171.57223633 345.27783203 171.15039062 C313.10755294 145.36888483 278.64811537 123.87780912 241.82275391 105.39111328 C240.91203125 104.9310791 240.00130859 104.47104492 239.06298828 103.99707031 C159.73497745 64.16716982 67.37451655 46.45879058 -239.17724609 108.39111328 Z " fill="#FFFFFF" transform="translate(1276.17724609375,687.60888671875)"/>
<path d="M0 0 C4.15006154 3.89351228 7.38650576 8.08138928 10.625 12.75 C11.14425049 13.4929834 11.66350098 14.2359668 12.19848633 15.00146484 C42.93054619 59.26122293 67.00998743 107.24469931 85 158 C85.34482422 158.95664551 85.68964844 159.91329102 86.04492188 160.89892578 C99.27913075 197.78315608 107.47564813 236.3651511 112.8125 275.125 C112.9618248 276.1953801 112.9618248 276.1953801 113.11416626 277.28738403 C116.57646152 302.45300942 117.3772187 327.57570056 117.3125 352.9375 C117.3102773 354.47854608 117.3081008 356.01959222 117.30596924 357.56063843 C117.26532376 378.77068883 117.1024894 399.85650036 114.27862549 420.91540527 C113.97648272 423.17594945 113.68705047 425.4379479 113.39794922 427.70019531 C104.99819047 492.60349 86.30821183 555.00806207 58 614 C57.58041016 614.88300781 57.16082031 615.76601562 56.72851562 616.67578125 C49.9378126 630.91329387 42.09561343 644.47037697 34 658 C33.50854492 658.82806152 33.01708984 659.65612305 32.51074219 660.50927734 C13.6064258 692.3366215 -8.8297695 722.14423519 -33.74291992 749.50756836 C-35.13144756 751.04088136 -36.51172291 752.58177546 -37.87792969 754.13500977 C-44.19075119 761.28399233 -50.87665727 768.0293466 -57.62963867 774.76000977 C-59.56610549 776.69109547 -61.49713956 778.62749882 -63.42773438 780.56445312 C-69.44869342 786.58904217 -75.47566793 792.51573889 -82 798 C-83.23887282 799.0798626 -84.47583659 800.16191903 -85.7109375 801.24609375 C-86.93212565 802.31008641 -88.15347909 803.37388938 -89.375 804.4375 C-89.97054687 804.95892578 -90.56609375 805.48035156 -91.1796875 806.01757812 C-96.3325088 810.49900427 -101.64532675 814.76296397 -107 819 C-107.73669922 819.58740967 -108.47339844 820.17481934 -109.23242188 820.7800293 C-132.36431041 839.13253773 -157.26527659 855.54090165 -183 870 C-183.85432617 870.48549316 -184.70865234 870.97098633 -185.58886719 871.47119141 C-218.47566704 890.10704466 -253.07212584 905.27197086 -289 917 C-290.05026367 917.34981934 -291.10052734 917.69963867 -292.18261719 918.06005859 C-344.53456396 935.42143936 -400.98310498 946.03460244 -456.23046875 946.203125 C-457.66211989 946.21018699 -459.09377068 946.21731969 -460.52542114 946.22451782 C-465.07945263 946.24406146 -469.63343051 946.2492101 -474.1875 946.25 C-475.35150644 946.25044186 -475.35150644 946.25044186 -476.53902817 946.25089264 C-498.75731527 946.25225595 -520.85196097 946.23719168 -542.91540527 943.27862549 C-545.17594945 942.97648272 -547.4379479 942.68705047 -549.70019531 942.39794922 C-573.76948987 939.28291063 -597.44212395 934.82469859 -621 929 C-622.24185059 928.69368652 -623.48370117 928.38737305 -624.76318359 928.07177734 C-654.52510622 920.58376337 -683.98608205 910.53228438 -712 898 C-712.9909668 897.55946289 -713.98193359 897.11892578 -715.00292969 896.66503906 C-722.04049 893.52410701 -729.03453555 890.2975835 -736 887 C-736.86044922 886.59313965 -737.72089844 886.1862793 -738.60742188 885.76708984 C-752.86887299 878.96757285 -766.44898652 871.10841266 -780 863 C-781.24209229 862.26281738 -781.24209229 862.26281738 -782.50927734 861.51074219 C-804.71296764 848.32253571 -826.05976596 833.41931859 -846 817 C-847.26070312 815.98099609 -847.26070312 815.98099609 -848.546875 814.94140625 C-853.91802178 810.58705171 -859.22629147 806.15910284 -864.5 801.6875 C-865.09973633 801.18379883 -865.69947266 800.68009766 -866.31738281 800.16113281 C-869.26901326 797.64341727 -871.83207878 795.25962441 -874 792 C-869.29367763 787.19562925 -864.54982366 782.52646216 -859.4375 778.15625 C-857.37898241 776.33525367 -855.37237348 774.48083906 -853.375 772.59375 C-852.39007568 771.66405396 -852.39007568 771.66405396 -851.38525391 770.71557617 C-850.07159928 769.47195973 -848.76122593 768.22486555 -847.45458984 766.97387695 C-843.82918099 763.54598515 -840.24271277 760.63048192 -836 758 C-826.17564855 765.97367202 -826.17564855 765.97367202 -821.9375 769.625 C-789.04916551 797.95142096 -751.68657922 820.57895443 -713 840 C-712.08927734 840.46003418 -711.17855469 840.92006836 -710.24023438 841.39404297 C-638.28693676 877.52116445 -558.06081821 893.40557746 -302.4375 866.75 C-278.18461639 858.64101897 -254.85511421 848.45664411 -232 837 C-230.96391602 836.48324707 -229.92783203 835.96649414 -228.86035156 835.43408203 C-199.48196687 820.70863126 -171.996834 803.08782767 -146 783 C-145.4028418 782.54173828 -144.80568359 782.08347656 -144.19042969 781.61132812 C-131.43828522 771.81267761 -119.30992916 761.35677084 -107.52832031 750.41503906 C-105.91786881 748.92395649 -104.29961418 747.44171784 -102.6796875 745.9609375 C-94.42205847 738.40249981 -86.29740438 730.79705778 -79.00390625 722.28515625 C-76.94333839 719.93538588 -74.82568121 717.64993276 -72.69238281 715.36645508 C-66.85549848 709.11407914 -61.31668106 702.70564099 -56 696 C-55.16412316 694.95698264 -54.32818316 693.91401588 -53.4921875 692.87109375 C-28.21630145 661.1816443 -7.17433467 627.20314032 11 591 C11.46003418 590.08927734 11.92006836 589.17855469 12.39404297 588.24023438 C51.71878228 509.91833782 68.83265894 419.8632345 37.75 180.4375 C29.64101897 156.18461639 19.45664411 132.85511421 8 110 C7.48324707 108.96391602 6.96649414 107.92783203 6.43408203 106.86035156 C-5.50359758 83.04378054 -18.85125605 58.67973634 -35.69262695 37.9128418 C-37 36 -37 36 -37 33 C-35.625 31.3125 -35.625 31.3125 -34 30 C-33.34 30 -32.68 30 -32 30 C-32 29.34 -32 28.68 -32 28 C-30.60404505 27.0851126 -29.20550281 26.17398741 -27.79589844 25.28027344 C-23.6376699 22.31592454 -20.26685026 18.33497683 -16.7421875 14.6640625 C-12.9855478 10.81428298 -9.16502674 7.45201014 -4.77490234 4.33740234 C-3.01706375 3.01285766 -1.51662143 1.59137212 0 0 Z " fill="#FFFFFF" transform="translate(1756,927)"/>
</svg>
